<svg id="Layer_1" data-name="Layer 1" xmlns="http://www.w3.org/2000/svg" viewBox="0 0 114.94 119.1">
  <defs>
    <style>
      .cls-1 {
        fill: none;
        stroke: #dd0000;
        stroke-linecap: round;
        stroke-linejoin: round;
        stroke-width: 1.5px;
      }
    </style>
  </defs>
  <title>arch</title>
  <path id="Layer7_0_1_STROKES" data-name="Layer7 0 1 STROKES" class="cls-1" d="M62.63,3.7h56.58V21.22l-12.55,10.2-15.91.07v77.06m21-104.85L99.15,20.82H110.9l8.32-11.21M110.9,20.82h8.32M62.63,109.08h51.22l0.07,12.22H62.63M106.4,32.09v75.72m-77.53-87H40.62L53.24,3.7H41.49L28.87,20.82H5.78v0.4l12.55,10.2,15.84,0.07,27.39,0.2m0-10.87H40.62m22,0h1.48L76.73,3.7M64.11,20.82H75.72L88.41,3.7M75.72,20.82H87.4L100,3.7m-38.46,0H53.24M65,3.7L52.36,20.82m-35.31,0L29.74,3.7H18L5.78,20.21v0.6M6.25,3.7H5.78V4.44L6.25,3.7H18M5.78,4.44V20.21M11,119.08l7.52-10H11.08l-0.07,10-0.13,2.22H21.15l9.13-12.22H18.53m58.2-62.29v61.35M48.2,46.79v61.35m13.36,0.94H53.77L44.65,121.3H56.39l9.13-12.22m-4-62.63h-13m5.17,62.63H42L32.9,121.3H44.65m18-74.84H76.33m-42.15-15v77.06M18.53,32.09v75.72M42,109.08H30.28M41.49,3.7H29.74M61.56,121.3H56.39m-23.49,0H21.15m56.12-12.22L68.14,121.3m32.42-12.22L91.43,121.3m-2.55-12.22L79.75,121.3m32.55-12.22-9.13,12.22M90.76,31.49l-28.12.2M87.4,20.82H99.15" transform="translate(-5.03 -2.95)"/>
</svg>
