<svg id="Layer_1" data-name="Layer 1" xmlns="http://www.w3.org/2000/svg" viewBox="0 0 100.61 117.94">
  <defs>
    <style>
      .cls-1 {
        fill: none;
        stroke: #dd0000;
        stroke-linecap: round;
        stroke-linejoin: round;
        stroke-width: 1.51px;
      }
    </style>
  </defs>
  <title>cas</title>
  <path id="Layer6_0_1_STROKES" data-name="Layer6 0 1 STROKES" class="cls-1" d="M30.54,102l-7.15,7a5.5,5.5,0,0,0-.57,3.43,8.12,8.12,0,0,0,1,3.15,6.1,6.1,0,0,0,1.57,1.72A6.4,6.4,0,0,0,30.25,119h0.29A6,6,0,0,0,34,117.69l8.15-7.87a36.46,36.46,0,0,1-3.43-2,55.86,55.86,0,0,1-5.86-4.29c-1-.86-2-1.86-3-2.72-0.72-.86-1.43-1.57-2.15-2.43a37,37,0,0,1-4.58-6L25,90.09H13v-11h58.2v11H38l0.86,0.86a23.75,23.75,0,0,0,2,1.86,30.47,30.47,0,0,0,5.86,4,30.65,30.65,0,0,0,6.72,2.86,36,36,0,0,0,8,1.29h2a43.64,43.64,0,0,0,7.44-.72,33,33,0,0,0,13.3-6,29.94,29.94,0,0,0,4-3.43,34.44,34.44,0,0,0,8.44-13.44,36.19,36.19,0,0,0,1.86-11.44V63.06a33.69,33.69,0,0,0-2-9.3,46.21,46.21,0,0,0-3.58-7A1.22,1.22,0,0,1,92.46,46L73.73,63.92a7.81,7.81,0,0,1-4.43,2.29c-1.86.43-3.86-.43-5.86-2.43l-0.57-.72-5-5.29L53,52.48,50.56,50a9.6,9.6,0,0,1-2.29-3.43c-0.72-2.29,0-4.43,2.43-6.72l8.87-8.44L82.88,9a10.06,10.06,0,0,1,4-2.43C88.88,6.15,91,7,93.17,9l0.29,0.43,0.43,0.43,6-5.58,10.44,11.15-5.86,5.43,1.72,1.72a6.93,6.93,0,0,1,2,3.15c0.86,2.29.14,4.72-2.43,7l-4.15,3.86a52.07,52.07,0,0,1,3.43,5,55.4,55.4,0,0,1,3.72,7,37.73,37.73,0,0,1,2.43,8.72,45.86,45.86,0,0,1,.86,9,9.44,9.44,0,0,1-.14,2,46.13,46.13,0,0,1-3.72,17.16,48.05,48.05,0,0,1-10.3,14.87A22,22,0,0,1,96,102.1l5.29,8.58a6.45,6.45,0,0,1,.72,3.58,5.69,5.69,0,0,1-2.43,4.58,7.06,7.06,0,0,1-5.43,1.86,5.19,5.19,0,0,1-2.43-1,3,3,0,0,1-.86-0.57l-5.72-9.58c-1.72.86-3.43,1.57-5.29,2.29a54.05,54.05,0,0,1-10.58,2.43c-1.72.14-3.43,0.29-5.15,0.29a34.85,34.85,0,0,1-3.86-.14c-2.72-.29-5.43-0.72-8-1.14a42.13,42.13,0,0,1-7.15-2.43c-0.86-.43-1.86-0.86-2.72-1.29M93.75,10.15L98.46,15l5.15,5.29,0.86,1m-6-6.29-5.15,7.15a0.44,0.44,0,0,1,.29.14,9.6,9.6,0,0,1,2.72,7V30l7.29-9.72m-7.29,9.58a4.41,4.41,0,0,1-.14,1.43,12.78,12.78,0,0,1,1.72,1.29,31.43,31.43,0,0,1,2.86,3.29l7.29-10M96.18,31.46A9.77,9.77,0,0,1,93.6,36a8.21,8.21,0,0,1-3.29,2.15,9.83,9.83,0,0,1-3.43.72h-1c0.72,0.86,1.43,1.72,2.15,2.43l0.14,0.14,1.72,1.72c0.86,1,1.72,2,2.43,3M100.75,36c0.29,0.29.57,0.72,0.86,1m-5.43,65.49a0.76,0.76,0,0,0-.43.29,46.65,46.65,0,0,1-10.58,7.29M59.57,31.6l-11.3,15m37.47-7.72a7.48,7.48,0,0,1-3.86-1.43l-19,25.6m-5-5.29L77.44,31.46A14.09,14.09,0,0,1,77.16,29a9.83,9.83,0,0,1,2.72-7,8.73,8.73,0,0,1,6.44-2.57l7.15-9.87m-7.29,10a0.53,0.53,0,0,1,.43-0.14A8.73,8.73,0,0,1,93,22M81.88,37.46a7.18,7.18,0,0,1-2-1.43,8.57,8.57,0,0,1-2.43-4.43M33.11,79.08l-8,11H34l8.15-11M15,79.51l-2,2.72m11.3-3.15-8.15,11M61.86,62.78l-5.72,5.43L45.55,57.06l5.72-5.43m8.58,27.46-8.15,11m-0.86-11-8.15,11M71,87.94l-1.43,2.15m-0.86-11-8,11m26-83.37L52.85,52.48M38,90.09H33.83M87.88,41.18l-18.59,25" transform="translate(-12.19 -3.53)"/>
</svg>
