<svg id="Layer_1" data-name="Layer 1" xmlns="http://www.w3.org/2000/svg" viewBox="0 0 120.45 81.3">
  <defs>
    <style>
      .cls-1 {
        fill: none;
        stroke: #dd0000;
        stroke-linecap: round;
        stroke-linejoin: round;
        stroke-width: 1.5px;
      }
    </style>
  </defs>
  <title>casnr</title>
  <path id="Layer8_0_1_STROKES" data-name="Layer8 0 1 STROKES" class="cls-1" d="M65.35,22.55L73.4,45V45.4A110.18,110.18,0,0,1,90,47q2.05,0.35,4.1.75l0.05-12.9h5.9l0.1,14m-3-14.4v-7.2M73.4,45.4V59.1l20.55,0.1A2.65,2.65,0,0,1,94.5,59a15.33,15.33,0,0,1,2.75-.55q2.45-.15,4.85-0.2a25.21,25.21,0,0,1,5.05.4,16.55,16.55,0,0,1,2.85.55q0.7,0.2,1.4.45l1.9,0.9,1.7,0.9M94.1,47.7a88.9,88.9,0,0,1,13.5,3.9q1.2,0.4,2.4.9,2.5,0.95,5,2.1a1.26,1.26,0,0,0,.3.15l0.1,6.85m-7.8-10v6.85M115,68.1a17,17,0,0,0-3.8-2.5l-6.3,8.55a8.19,8.19,0,0,1,4.15,2.3A7.56,7.56,0,0,1,110,77.6q0.3,0.4.55,0.8l6.35-8.55a4.29,4.29,0,0,1-.55-0.55A15.12,15.12,0,0,0,115,68.1Zm-3.8-2.5q-0.6-.3-1.2-0.55a18.3,18.3,0,0,0-6.25-1.25L84.9,89.2a18.49,18.49,0,0,0,4,6.5l6.25-8.35A8.57,8.57,0,0,1,93.9,82.8a8.71,8.71,0,0,1,8.85-8.9,9.25,9.25,0,0,1,2.15.25m-20,15q-0.2-.6-0.35-1.2a18.66,18.66,0,0,1-.7-5.15,20.15,20.15,0,0,1,.6-5,18.77,18.77,0,0,1,5-8.55q0.3-.3.6-0.55a22,22,0,0,1,2.85-2.15,18.23,18.23,0,0,1,10.05-2.85,7.71,7.71,0,0,1,.85,0M73.4,59.1L73.35,69.25l8.1,0.2a21.28,21.28,0,0,1,3.65-4.8A21.54,21.54,0,0,1,90,61a4,4,0,0,1,.65-0.35,20.42,20.42,0,0,1,3.3-1.4m-20.6,10,0,16.35,5.9,0.05a23.42,23.42,0,0,1-.55-5.4A21,21,0,0,1,81.4,69.6a0.38,0.38,0,0,1,0-.15m35.45,0.4a17.91,17.91,0,0,1,5,13,20.57,20.57,0,0,1-.55,4.8,18.38,18.38,0,0,1-5.05,8.6,19.32,19.32,0,0,1-3.45,2.85,18.15,18.15,0,0,1-10,2.85H102A18,18,0,0,1,94.55,100,18.87,18.87,0,0,1,90,96.85l-0.6-.6Q89.15,96,88.9,95.7m5.65,4.3,6.3-8.5a8.8,8.8,0,0,1-4.4-2.45,5.2,5.2,0,0,1-.9-1.05,2.63,2.63,0,0,1-.4-0.65m9.9-4.1a2,2,0,0,1-.65,1.5,1.89,1.89,0,0,1-1.5.7,2,2,0,0,1-1.55-.7,2,2,0,0,1-.65-1.5,2.12,2.12,0,0,1,.65-1.55,2.21,2.21,0,0,1,1.55-.6,2,2,0,0,1,1.5.6A2.12,2.12,0,0,1,105.05,83.25Zm5.5-4.85a8.8,8.8,0,0,1,1.1,4.4A8.48,8.48,0,0,1,110,87.95l-0.05.05a8.83,8.83,0,0,1-.9,1.05,8.69,8.69,0,0,1-6.3,2.6,12.16,12.16,0,0,1-1.9-.15m-8-24.9-8.4,11.25M62.1,26.8l6.2,17,0,1.5,0.6,19.2h-9.6q-5.1-15.2-19.1-19.15A41.68,41.68,0,0,0,28.15,44l3.5-17.35h30.1m-33-4.15-7.5,25.9a25.18,25.18,0,0,1,2.85-.25q9.45-.45,15.1,2.45a33.55,33.55,0,0,1,8,5.35,27.14,27.14,0,0,1,7.3,13.2l11.85,0.1,6.9,0.05M38.5,27.15L35.8,44M50,75.7q0.1,1.05.1,2.05A22.8,22.8,0,0,1,47.75,88a23.39,23.39,0,0,1-4.65,6.35,22,22,0,0,1-11.8,6.5,27.42,27.42,0,0,1-4.8.4,26.61,26.61,0,0,1-4-.3,21.3,21.3,0,0,1-7.1-2.4,25.11,25.11,0,0,1-5.5-4.2,0.58,0.58,0,0,1-.15-0.1A25,25,0,0,1,5.35,88.2L5.25,88A23.16,23.16,0,0,1,3,79.35q0-.75,0-1.6A22.77,22.77,0,0,1,9.85,61.1a22.49,22.49,0,0,1,11.5-6.35,23.45,23.45,0,0,1,5.15-.55,24.43,24.43,0,0,1,11,2.6,24.16,24.16,0,0,1,5.6,4.3,22.36,22.36,0,0,1,4.4,6A21.64,21.64,0,0,1,50,75.7L31.3,100.85M30.35,54.5L21.6,66.3a12,12,0,0,1,4.55-.85,11.61,11.61,0,0,1,4.35.8l7-9.45m-7,9.45a10.9,10.9,0,0,1,4,2.6,17.87,17.87,0,0,1,1.5,1.8l7.1-9.55M9.7,94.25l7.15-9.6a11.53,11.53,0,0,1-2.55-7.4q0-.65.05-1.2l-9,12.15m10,10.35,7.35-10a11.35,11.35,0,0,1-1.6-.6,11.08,11.08,0,0,1-3.35-2.4,8,8,0,0,1-.9-0.95M36,70.65a11.55,11.55,0,0,1,2,6.6,13.16,13.16,0,0,1-.4,3.3l10-13.5m-10,13.5a11.23,11.23,0,0,1-3,5,16.27,16.27,0,0,1-1.85,1.6l-10.2,13.75m6.8-23a2.57,2.57,0,0,1-.9,2,2.63,2.63,0,0,1-2,.85,2.79,2.79,0,0,1-2.05-.85,2.63,2.63,0,0,1-.85-2,3,3,0,0,1,.85-2.1,2.88,2.88,0,0,1,2.05-.8,2.71,2.71,0,0,1,2,.8A2.88,2.88,0,0,1,29.25,77.95Zm3.4,9.25a15,15,0,0,1-1.4.8,11.67,11.67,0,0,1-5.1,1.1,11.83,11.83,0,0,1-3.45-.5M21.35,54.75L3,79.35m11.3-3.3a11.76,11.76,0,0,1,3.4-7.2A13.13,13.13,0,0,1,21.6,66.3M73.3,85.6H66.45v6.9l-11.25.1V73.95q-0.15-1.8-.35-3.55-0.15-.65-0.25-1.3m11.85,0.1V85.6H55.65m0.1-8.95H65.8m-40-54.5h42.1M40.25,45.3l28.1,0M10.05,52.7Q14,49.2,21.3,48.35M120.95,76.4L102,101.95m19.4-14.3L112.9,99.1" transform="translate(-2.25 -21.4)"/>
</svg>
