<svg id="Layer_1" data-name="Layer 1" xmlns="http://www.w3.org/2000/svg" viewBox="0 0 113.99 103.09">
  <defs>
    <style>
      .cls-1 {
        fill: none;
        stroke: #dd0000;
        stroke-linecap: round;
        stroke-linejoin: round;
        stroke-width: 2px;
      }
    </style>
  </defs>
  <title>cba</title>
  <path id="Layer3_0_1_STROKES" data-name="Layer3 0 1 STROKES" class="cls-1" d="M80.24,14.76l16.33-2.65q6.92-1.13,8.05,5.82l13.73,84.21q1.06,7-5.86,8.13l-16.26,2.61q-6.92,1.13-8.05-5.79L74.46,22.82Q73.66,18.09,76.69,16A8.44,8.44,0,0,1,80.24,14.76ZM85.8,44.94L100,42.67M84.59,37.83l14.25-2.34M83.49,30.83L97.71,28.6m5.94,50.59a7.32,7.32,0,0,1,2.46,1.25q0.68,0.49,1.4,1.06a7.81,7.81,0,0,1,1.21,1.55A8.67,8.67,0,0,1,110,86.6a8.51,8.51,0,0,1-1.74,6.88,8.73,8.73,0,0,1-6,3.89,9.65,9.65,0,0,1-2.95-.08,6.91,6.91,0,0,1-1-.23,9.21,9.21,0,0,1-3.1-1.47,6.56,6.56,0,0,1-1.47-1.4L93,93.41a9,9,0,0,1-1.47-3.78,9.11,9.11,0,0,1,7.75-10.78,8.12,8.12,0,0,1,2.46-.08A7.33,7.33,0,0,1,103.65,79.19Zm0,0L93,93.41m15.73-10.36-10.44,14M49.8,12.61H66.29q7,0,7,7v85.42q0,7-7,7H49.8q-7.07,0-7.07-7V19.64Q42.73,12.61,49.8,12.61Zm0.49,80.54a8.26,8.26,0,0,1-1.44-4.88,9.17,9.17,0,0,1,9.38-9.38,8.32,8.32,0,0,1,2.5.38,8,8,0,0,1,4.08,2.31,11.26,11.26,0,0,1,1.1,1.29,9.07,9.07,0,0,1,1.7,5.41,8.76,8.76,0,0,1-2.8,6.58,8.92,8.92,0,0,1-6.58,2.8,8.83,8.83,0,0,1-2.95-.49,9.81,9.81,0,0,1-3.74-2.31A7.12,7.12,0,0,1,50.29,93.15Zm0,0L60.73,79.27m5.18,3.59L55.29,97.15M50.41,43.31H64.81M50.41,29H64.81m-14.41,7H64.81" transform="translate(-5.5 -10.96)"/>
  <path id="Layer3_0_MEMBER_0_1_STROKES" data-name="Layer3 0 MEMBER 0 1 STROKES" class="cls-1" d="M13.57,12.19H30q7,0,7,7v85.34q0,7-7,7H13.57q-7.06,0-7.06-7V19.22Q6.5,12.19,13.57,12.19Zm0.49,80.47a8.25,8.25,0,0,1-1.44-4.87A9.17,9.17,0,0,1,22,78.42a8.31,8.31,0,0,1,2.49.38,8,8,0,0,1,4.08,2.3,11.25,11.25,0,0,1,1.1,1.28,9.06,9.06,0,0,1,1.7,5.4,8.76,8.76,0,0,1-2.8,6.57A8.92,8.92,0,0,1,22,97.15,8.82,8.82,0,0,1,19,96.66a9.8,9.8,0,0,1-3.74-2.3A7.11,7.11,0,0,1,14.06,92.66Zm0,0L24.49,78.79m5.18,3.59L19,96.66m-4.87-61H28.57m-14.39-7H28.57M14.17,42.87H28.57" transform="translate(-5.5 -10.96)"/>
</svg>
