<svg id="Layer_1" data-name="Layer 1" xmlns="http://www.w3.org/2000/svg" viewBox="0 0 108.5 85.39">
  <defs>
    <style>
      .cls-1 {
        fill: none;
        stroke: #dd0000;
        stroke-linecap: round;
        stroke-linejoin: round;
        stroke-width: 1.5px;
      }
    </style>
  </defs>
  <title>cehs</title>
  <path id="Layer1_0_1_STROKES" data-name="Layer1 0 1 STROKES" class="cls-1" d="M47.14,22.53v2.39a22.3,22.3,0,0,1,5,.55A18.72,18.72,0,0,1,56,26.82q1.23,0.61,2.51,1.41A26.26,26.26,0,0,1,61,29.95V29.76h0.06a66.55,66.55,0,0,1,9-3.8,46.54,46.54,0,0,1,15.08-2.21A41.3,41.3,0,0,1,97,25.9,46.59,46.59,0,0,1,107,30.62q0.92,0.49,1.84,1.1m0.61,1.59,6.5-.18m-16.56,63,8.58-10,0.49-.34q-1.66,1.08-1.78,0l-10.67,1,3.19,8.65,0.18,0.67-0.61-.18a51.78,51.78,0,0,0-11.77-2.15,48.39,48.39,0,0,0-14.1.86,60.06,60.06,0,0,0-11.1,3.5l0.06,6.19q2.33-.43,4.48-0.86a94.18,94.18,0,0,1,15-2.08,92,92,0,0,1,13.43,0,96.65,96.65,0,0,1,12.26,1.53q3.31,0.61,6.56,1.41l0.06-.55L116,33.5M99.26,95.43l-0.43.49m9.69-10.18,0.37-53.47M47.14,24.92l0.12,7.3L47.32,43.5l0.06,11.34,0.06,14.41-5-7.85-3.92-6.13L36.9,52.63l-4.11,5.64L24.58,70.78v-8L24.45,51.41,24.39,40.12V28.66L24.33,22a45.88,45.88,0,0,1,5.83-1.17q1.78-.18,3.43-0.25h0.25a32.87,32.87,0,0,1,4.91.25,35.34,35.34,0,0,1,5.52.92s0.06,0,.06.12a11,11,0,0,1,1.59.43,0.05,0.05,0,0,1,.06.06,2.18,2.18,0,0,1,.61.18M15.5,29.33a15.59,15.59,0,0,1,8.28-5m-8.09,5.46,0.12,2L17,96.11a14.28,14.28,0,0,1,1.41-.31,71.82,71.82,0,0,1,15.21-2.39,66.61,66.61,0,0,1,13.06.43,96.07,96.07,0,0,1,11.71,2.39q1.53,0.49,3.5,1L61,29.95M30.16,20.81l-5.76,7.85m37.53,75.66q-4.35-.74-8.71-1.23-6.44-.67-12.88-0.8-6.74-.12-13.61.31-7.3.49-14.65,1.72l-1.29.12L9,31.72h6.81m17,26.55-8.22,11M47.32,43.5L38.56,55.27m8.83-.43L42.48,61.4M61.86,97.21v0.92M46,22.34L24.45,51.41M47.26,32.21L24.58,62.75M38.74,20.81L24.39,40.12" transform="translate(-8.25 -19.8)"/>
</svg>
