<svg id="Layer_1" data-name="Layer 1" xmlns="http://www.w3.org/2000/svg" viewBox="0 0 116.04 109.63">
  <defs>
    <style>
      .cls-1 {
        fill: none;
        stroke: #dd0000;
        stroke-linecap: round;
        stroke-linejoin: round;
        stroke-width: 1.5px;
      }
    </style>
  </defs>
  <title>cojmc</title>
  <path id="Layer2_0_1_STROKES" data-name="Layer2 0 1 STROKES" class="cls-1" d="M48.64,55.85H8.41c-2.39.24-3.47,2-3.11,4.91v44.66c0.12,2,1,3,2.63,3.23h9.34v-0.48a8,8,0,0,1,2.51-5.87,8.25,8.25,0,0,1,5.87-2.51,8,8,0,0,1,6,2.51,8.25,8.25,0,0,1,2.51,5.87v0.48H68.88c1.8-.36,2.51-1.44,2.28-3.47V73.1c0-2.51.72-3.47,2.28-3.11l18.68-.12c1.44-.12,2.28-0.84,2.16-2.28,0-.12-0.12-0.36-0.12-0.48-3-7.42-7.9-11-14.73-11l-30.77-.24L48.52,45.8l-9.94,9.94-0.12.12M88.88,74.77H88.52l-3.35-.12L76.06,87V82l-0.12-4.19a2.33,2.33,0,0,1,.12-1A2.51,2.51,0,0,1,77.38,75a4.2,4.2,0,0,1,1.92-.36h2.16l3.71,0.12m-2.87,8.86V80.52h2.28M75.95,87v5.15m8.74-11.62h4l3.59-4.91c-1-.24-2.16-0.48-3.35-0.72m11.62,5A13.89,13.89,0,0,0,98,78m-6,3a10,10,0,0,1,2.75,1.44A10.24,10.24,0,0,1,97,84.71m-2.28-2.16,3.35-4.43a12.06,12.06,0,0,0-2.75-1.44M82.29,83.63V88.9H98.82l-0.36-1.08a9.5,9.5,0,0,0-1.8-3m12,4.91c-1-.24-2-0.6-3.23-0.84M93.07,100.4a8,8,0,0,1,2.51-.36,5.83,5.83,0,0,1,1.44.12,8.28,8.28,0,0,1,3,1.2M97,100l8.26-11.14,0.12-.12a31.58,31.58,0,0,0-1.2-3.59M98.7,87.59l3.83-5.39a18.06,18.06,0,0,0-2-2.39m3.71,5.27a10.47,10.47,0,0,0-1.8-2.87M92,81a12.08,12.08,0,0,0-2.39-.48h-1m9.1,8.14L83,108.78h3.83l0.48-.72a7.72,7.72,0,0,1,2.51-5.75,12.35,12.35,0,0,1,3.35-2.16M83.13,93h2.51M100,101.24a3.74,3.74,0,0,1,1.32,1.08,6,6,0,0,1,.84,1l9.46-12.69a11.92,11.92,0,0,0-3.11-1.08m8.86,9a11.55,11.55,0,0,0-1.2-3.59l-10.3,13.89h7.66l5.75-7.66a3.27,3.27,0,0,0-1.08-1.44c-0.12-.12-0.36-0.24-0.48-0.36h-0.12c-0.12-.24-0.12-0.6-0.24-0.84m-13.65,8.14a5.83,5.83,0,0,1,.12,1.44v0.72H106m10.18-13.89a7.86,7.86,0,0,0-2-2.51m-0.48,16.52h3.23c0.24,0,.48-0.12.72-0.12l2.16-2.75a32.51,32.51,0,0,1-.12-3.47,3.54,3.54,0,0,0-.24-1.2m-1.92,7.3a2.22,2.22,0,0,0,.84-0.24,1.61,1.61,0,0,0,.84-0.72,3.19,3.19,0,0,0,.36-1.44V106m-5.27-13.65a16.7,16.7,0,0,0-2.63-1.8m-16.41-14a23.65,23.65,0,0,0-3.11-1M42.42,32.74A1.91,1.91,0,0,0,41,32.26c-0.12,0-.24.12-0.36,0.12a2.12,2.12,0,0,0-1,.6,1.8,1.8,0,0,0-.48,1.32v0.12A2.28,2.28,0,0,0,40,35.86l7.06-7.06,6.59-6.59c0.24,0.6.6,1.2,0.84,1.92a21.69,21.69,0,0,1,1.08,3.71,16.12,16.12,0,0,1,.24,4.79c-0.12.48-.12,1.08-0.24,1.56a19.8,19.8,0,0,1-6.83,11.14,33.32,33.32,0,0,1-4.91,3.47,15.32,15.32,0,0,1-5,1.56,9.31,9.31,0,0,1-1.92.24,7.24,7.24,0,0,1-2.28,0,16.19,16.19,0,0,1-3.47-.6,12.07,12.07,0,0,1-2.75-1.44,3.17,3.17,0,0,1-.72-0.6l4.55-4.55,7.66-7.54m-15.69-1.2c0.48-7.78,3.59-12.93,9.58-15.57A28.63,28.63,0,0,1,41,17.3M15.23,34.42c0.36-6.23,1.92-11.26,4.43-15.09,4.07-6.35,11-9.94,20.6-10.9M50.8,85.67H41.7a1.27,1.27,0,0,1-1.44-1.44v-9.1A1.27,1.27,0,0,1,41.7,73.7H59.42a1.27,1.27,0,0,1,1.44,1.44v9.1a1.27,1.27,0,0,1-1.44,1.44H50.8V74.18M83.13,93H81m1.32-4.31-6.35,8.74v5m0-10.3,0.12,5.27M47,28.79L31.16,50.23M55.47,27.83L38.58,50.59M32.12,43.4l-3.83,5.27m61.79,40-14,18.44a2.26,2.26,0,0,0,2.51,1.8h0.6m-3.23-6.47v4.07c0,0.24.12,0.36,0.12,0.6M27,108.66a1.93,1.93,0,0,1-.36,1.08,1,1,0,0,1-1,.36,1.93,1.93,0,0,1-1.08-.36,1.17,1.17,0,0,1-.48-1.08,1.09,1.09,0,0,1,.48-1,1.46,1.46,0,0,1,1.08-.36,1.18,1.18,0,0,1,1,.36A1.36,1.36,0,0,1,27,108.66Zm6.83,0a7.87,7.87,0,0,1-2.51,5.39,8.31,8.31,0,0,1-6,2.51,8,8,0,0,1-5.87-2.51,8.15,8.15,0,0,1-2.51-5.39m80.23,0a1.43,1.43,0,0,1-1.56,1.44,1.36,1.36,0,0,1-1-.36,1.46,1.46,0,0,1-.36-1.08,1.24,1.24,0,0,1,1.32-1.32,1.93,1.93,0,0,1,1.08.36A1.09,1.09,0,0,1,97.14,108.66Zm6.59,0.24a7.18,7.18,0,0,1-2.39,5,8.83,8.83,0,0,1-4.91,2.51H95.58a10.21,10.21,0,0,1-2.75-.36,9.29,9.29,0,0,1-2.63-1.44,1.81,1.81,0,0,1-.48-0.48,6.26,6.26,0,0,1-1.44-2,9.91,9.91,0,0,1-.84-3.23H87m0.36-.12v-0.72m-8.14.72h3.71m19.4-5.39a8.4,8.4,0,0,1,1.44,3.35" transform="translate(-4.48 -7.69)"/>
</svg>
