<svg id="Layer_1" data-name="Layer 1" xmlns="http://www.w3.org/2000/svg" viewBox="0 0 114 86.88">
  <defs>
    <style>
      .cls-1 {
        fill: #dd0000;
      }

      .cls-2 {
        fill: none;
        stroke: #dd0000;
        stroke-linecap: round;
        stroke-linejoin: round;
        stroke-width: 1.5px;
      }
    </style>
  </defs>
  <title>cpac</title>
  <g>
    <g id="Layer0_0_FILL" data-name="Layer0 0 FILL">
      <path class="cls-1" d="M72.63,37.81a5.14,5.14,0,0,0-1.17.35v0.12A10.57,10.57,0,0,1,73,37.81V37.75a1.3,1.3,0,0,0-.41.06M90.38,20.58V20.53a5.48,5.48,0,0,0-3.87-1.46l-0.35.06-1.7.41a4.18,4.18,0,0,0-2.4,1.76A5,5,0,0,0,81,23.87a0.38,0.38,0,0,0-.18-0.18V23.63A3.39,3.39,0,0,0,80,23a6.88,6.88,0,0,0-.82-0.29,6.42,6.42,0,0,0-6,1.17,1.36,1.36,0,0,0-.23.35q-0.18.29-.64,1.23a13.48,13.48,0,0,0-.7,3.57q-0.06,1.35-.23,3.81l-0.06,1.93a0.4,0.4,0,0,0-.12-0.29H70.82a7.57,7.57,0,0,0-4.45-.29q-0.94.47-1.87,1.05a4,4,0,0,0-1.11,1.29,12.18,12.18,0,0,0-.47,1.64A21.11,21.11,0,0,0,62.68,41q-0.06.59-.06,1.23l-0.12,4a7.84,7.84,0,0,1,1.93-3.57q0.35-5.21.47-5.45a1.69,1.69,0,0,1,.53-0.53l0.12-.12,0.82-.59a3.42,3.42,0,0,1,1.23-.35h0.12a0.52,0.52,0,0,1,.23-0.06,3.93,3.93,0,0,1,2.46.76A2,2,0,0,1,71.46,38v0.18a5.14,5.14,0,0,1,1.17-.35A1.3,1.3,0,0,1,73,37.75V33.47q0.06-1,.12-1.93,0.18-2.58.47-5.27a0.05,0.05,0,0,0,.06-0.06,3.29,3.29,0,0,1,.82-1.29,3.38,3.38,0,0,1,2-.94,0.65,0.65,0,0,0,.29-0.06,0.38,0.38,0,0,0,.29,0,3.54,3.54,0,0,1,2.52,1h0.06a3.29,3.29,0,0,1,.82,1.29,2.65,2.65,0,0,1,.18.94v1.7q0,0.12,0,.29t0,0.35L80.78,38a10.64,10.64,0,0,1,1.76.64L82.42,29q0.18-1.7.23-2.75,0.12-1.87.12-2a3,3,0,0,1,.06-0.59q0.18-.41.29-0.76a2.5,2.5,0,0,1,1.82-1.7,11.66,11.66,0,0,1,1.46-.35h0.12a3.69,3.69,0,0,1,2.64,1h0.06a3.52,3.52,0,0,1,.94,1.52L91,33.77a40.35,40.35,0,0,1,.23,4.45,37.39,37.39,0,0,0,.23,5.1l0.53,12a0.72,0.72,0,0,0,.29.59,0.79,0.79,0,0,0,.59.23,0.78,0.78,0,0,0,.64-0.29,0.79,0.79,0,0,0,.23-0.59l-1.05-26A1.11,1.11,0,0,0,92.73,29,2.74,2.74,0,0,1,93.31,27a3.37,3.37,0,0,1,.53-0.53V26.44A0.17,0.17,0,0,1,94,26.38l0.94-.64a5.48,5.48,0,0,1,3.75.35,1.84,1.84,0,0,1,.47.35l0.06,0.06a3.12,3.12,0,0,1,1.05,2.34v0.82l1.05,34.56A44.86,44.86,0,0,0,94.43,68a20.56,20.56,0,0,0-5.1,7.79,1,1,0,0,0,1.64.59,20.42,20.42,0,0,1,4.63-7q0.76-.7,7.15-3.57a3.41,3.41,0,0,0,2.34-.23A7.07,7.07,0,0,0,107.9,62v0.06l1-2.11a4.75,4.75,0,0,1,3-3.16l-0.06.06q3-.94,4.57-0.35a2.07,2.07,0,0,1,1.23,1.93q-0.35.64-.76,1.29v0.06Q110.24,71.32,109,78.46V78.4q-0.59,3.1-3.92,6.68a43,43,0,0,1-6.39,5.45q-0.29.23-.64,0.47a1,1,0,0,0-.29.29,1.3,1.3,0,0,0-.06.41l0.06,12.48H72L72,101.72h0.06l0.18-9.9A0.72,0.72,0,0,0,72,91.23,0.51,0.51,0,0,0,71.58,91a0.74,0.74,0,0,0-.18-0.35l-1.93-2.17a1,1,0,0,0-.29-0.29,0.87,0.87,0,0,0-.23-0.41q-0.59-.76-1.11-1.52l-1.11,1.52a2.33,2.33,0,0,1,.29.35H67L67,88.25l0.18,0.18,0.06,0.23,0.23,0.41,0.64,0.59a0.33,0.33,0,0,1,.12.18H68.3q0.88,1,1.82,2a1.56,1.56,0,0,0,.41.29l-0.29,12.95a0.81,0.81,0,0,0,.88.88H98.7a0.62,0.62,0,0,0,.53-0.23,0.9,0.9,0,0,0,.29-0.64,0.72,0.72,0,0,0-.12-0.41,1,1,0,0,0,.12-0.47l-0.06-12a44.23,44.23,0,0,0,6.91-5.92v0.06q3.69-4,4.34-7.56h0.06q1.23-7,7.67-18.1l0.94-1.52a1,1,0,0,0,.12-0.47,4.07,4.07,0,0,0-1.58-3.4,2,2,0,0,0-.82-0.41q-1.93-.82-5.68.29h-0.06l-0.35.12a6.34,6.34,0,0,0-3.81,4.16l-0.88,1.87a6,6,0,0,1-1.23,2l-0.29.29q-1.11.94-1.82,0.35L102.1,35.41q-0.06-2.69-.29-7.73a4.79,4.79,0,0,0-1.46-2.52,2.47,2.47,0,0,0-.64-0.47A7.91,7.91,0,0,0,98.12,24a4.45,4.45,0,0,0-5.27.94l-0.18.18H92.61l-0.41.41L91.91,23.1A0.17,0.17,0,0,0,91.85,23a3.13,3.13,0,0,0-.41-1.05,5,5,0,0,0-1.05-1.35m-38,17.34L52,37.81v1.7a0.65,0.65,0,0,1,.29-0.06h0.47a4.64,4.64,0,0,1,.76.06V38.92a1.78,1.78,0,0,1,.06-0.53V38.28a5.28,5.28,0,0,0-1.11-.35M44.16,23.69a0.38,0.38,0,0,0-.18.18,5,5,0,0,0-1.05-2.58,4.18,4.18,0,0,0-2.4-1.76l-1.7-.41-0.35-.06a5.48,5.48,0,0,0-3.87,1.46v0.06a5,5,0,0,0-1.05,1.35A3.13,3.13,0,0,0,33.15,23a0.17,0.17,0,0,0-.06.12L32.8,25.56l-0.41-.41H32.33L32.15,25A4.45,4.45,0,0,0,26.88,24a7.91,7.91,0,0,0-1.58.64,2.47,2.47,0,0,0-.64.47,4.79,4.79,0,0,0-1.46,2.52q-0.23,5-.29,7.73L22,63.94q-0.7.59-1.82-.35l-0.29-.29a6,6,0,0,1-1.23-2L17.8,59.42A6.34,6.34,0,0,0,14,55.27l-0.35-.12H13.58Q9.84,54,7.9,54.86a2,2,0,0,0-.82.41,4.07,4.07,0,0,0-1.58,3.4,1,1,0,0,0,.12.47l0.94,1.52Q13,71.79,14.23,78.76h0.06q0.64,3.57,4.34,7.56V86.25a44.24,44.24,0,0,0,6.91,5.92l-0.06,12a1,1,0,0,0,.12.47,0.72,0.72,0,0,0-.12.41,0.9,0.9,0,0,0,.29.64,0.62,0.62,0,0,0,.53.23H53.89a0.81,0.81,0,0,0,.88-0.88L54.71,100H54.65l-0.18-7.85a1.56,1.56,0,0,0,.41-0.29q0.94-1,1.82-2h0.06a0.33,0.33,0,0,1,.12-0.18l0.64-.59,0.23-.41,0.06-.23L58,88.25,58,88.13H58a4.21,4.21,0,0,1,.53-0.64L57.4,86l-1.35,1.82a0.87,0.87,0,0,0-.23.41,1,1,0,0,0-.29.29L53.6,90.65a0.74,0.74,0,0,0-.18.35,0.51,0.51,0,0,0-.41.23,0.72,0.72,0,0,0-.29.59l0.23,9.9H53v2.46H27.23L27.29,91.7a1.3,1.3,0,0,0-.06-0.41A1,1,0,0,0,26.94,91q-0.35-.23-0.64-0.47a43,43,0,0,1-6.39-5.45Q16.57,81.51,16,78.4v0.06q-1.23-7.15-7.91-18.69V59.72q-0.41-.64-0.76-1.29A2.07,2.07,0,0,1,8.55,56.5q1.52-.59,4.57.35l-0.06-.06a4.75,4.75,0,0,1,3,3.16l1,2.11V62a7.07,7.07,0,0,0,2.81,3.57,3.41,3.41,0,0,0,2.34.23q6.39,2.87,7.15,3.57a20.42,20.42,0,0,1,4.63,7,1,1,0,0,0,1.64-.59A20.56,20.56,0,0,0,30.57,68a44.86,44.86,0,0,0-6.85-3.81l1.05-34.56V28.84a3.12,3.12,0,0,1,1.05-2.34l0.06-.06a1.84,1.84,0,0,1,.47-0.35,5.48,5.48,0,0,1,3.75-.35L31,26.38a0.17,0.17,0,0,1,.12.06V26.5a3.36,3.36,0,0,1,.53.53A2.74,2.74,0,0,1,32.27,29a1.11,1.11,0,0,0,.06.35l-1.05,26a0.79,0.79,0,0,0,.23.59,0.78,0.78,0,0,0,.64.29,0.79,0.79,0,0,0,.59-0.23A0.72,0.72,0,0,0,33,55.32l0.53-12a37.4,37.4,0,0,0,.23-5.1A40.37,40.37,0,0,1,34,33.77l0.82-10.43a3.52,3.52,0,0,1,.94-1.52h0.06a3.69,3.69,0,0,1,2.64-1H38.6a11.66,11.66,0,0,1,1.46.35,2.5,2.5,0,0,1,1.82,1.7q0.12,0.35.29,0.76a3,3,0,0,1,.06.59q0,0.12.12,2,0.06,1.05.23,2.75l-0.12,9.49a9.68,9.68,0,0,1,1.82-.53l0.06-8.44q0-.18,0-0.35t0-.29v-1.7a2.65,2.65,0,0,1,.18-0.94,3.29,3.29,0,0,1,.82-1.29h0.06a3.54,3.54,0,0,1,2.52-1,0.38,0.38,0,0,0,.29,0,0.65,0.65,0,0,0,.29.06,3.38,3.38,0,0,1,2,.94,3.29,3.29,0,0,1,.82,1.29,0.05,0.05,0,0,0,.06.06q0.29,2.69.47,5.27,0.06,0.94.12,1.93v4.34l0.47,0.12a5.28,5.28,0,0,1,1.11.35q0-.18,0-0.29a2,2,0,0,1,1.05-1.7,3.93,3.93,0,0,1,2.46-.76,0.52,0.52,0,0,1,.23.06H57.4a3.42,3.42,0,0,1,1.23.35l0.82,0.59,0.12,0.12a1.69,1.69,0,0,1,.53.53q0.12,0.23.53,6a0.92,0.92,0,0,0,.18.23,7.66,7.66,0,0,1,1.52,4.45,7.81,7.81,0,0,1,.18-1.64V46.19l-0.12-4a5.78,5.78,0,0,1-.06-0.82,27,27,0,0,0-.23-3.22,12.18,12.18,0,0,0-.47-1.64,4,4,0,0,0-1.11-1.29q-0.94-.59-1.87-1.05a7.57,7.57,0,0,0-4.45.29H53.89a0.4,0.4,0,0,0-.12.29l-0.06-1.93q-0.18-2.46-.23-3.81a13.48,13.48,0,0,0-.7-3.57q-0.47-.94-0.64-1.23a1.36,1.36,0,0,0-.23-0.35,6.42,6.42,0,0,0-6-1.17A6.88,6.88,0,0,0,45,23a3.39,3.39,0,0,0-.88.64v0.06m59.05,2.11L103.33,26V25.86a0.17,0.17,0,0,0-.12-0.06M21.67,26l0.12-.18a0.17,0.17,0,0,0-.12.06V26Z" transform="translate(-5.5 -19.06)"/>
    </g>
    <path id="Layer0_0_1_STROKES" data-name="Layer0 0 1 STROKES" class="cls-2" d="M52,37.81l0.47,0.12a5.28,5.28,0,0,1,1.11.35l0.41,0.12a12.79,12.79,0,0,1,4.39,2.75A12.27,12.27,0,0,1,60,43a0.92,0.92,0,0,0,.23.35,11.63,11.63,0,0,1,2.23,6.56,16.17,16.17,0,0,1,.18-2.4V47.42a12.25,12.25,0,0,1,2.75-5.27l0.88-1a13.8,13.8,0,0,1,4.86-2.87l0.35-.12M73,37.75a16.15,16.15,0,0,1,2.4-.29h0.47q0.88,0,1.7.06A12.44,12.44,0,0,1,80,38a8.94,8.94,0,0,1,1.7.64q0.94,0.47,1.87,1.05h0.12a11,11,0,0,1,1.82,1.46,0.68,0.68,0,0,0,.12.18,13.94,13.94,0,0,1,3,4.39q0.18,0.47.35,1v0.35a11.49,11.49,0,0,1,.32,4.54,21.17,21.17,0,0,1-1.08,4,25.83,25.83,0,0,1-3.22,5.48L62.73,93.23,59.4,88.48l-5.1-7.32L49,73.89l-5.1-7.38-5.21-7.26L37.9,58.08a6.17,6.17,0,0,1-.35-0.53,16.62,16.62,0,0,1-1-1.64,12.17,12.17,0,0,1-1.29-5.62,4.64,4.64,0,0,1,.06-0.76,10.31,10.31,0,0,1,1.35-5,11.72,11.72,0,0,1,2.46-3.34,14.34,14.34,0,0,1,4.22-2.69,8.36,8.36,0,0,1,1.76-.53,11.28,11.28,0,0,1,2.64-.41,8.56,8.56,0,0,1,1.05-.06,9.54,9.54,0,0,1,1.05.06,11.94,11.94,0,0,1,2.11.29m-9.55,1.64L35.32,49.52m17.4-10.08-14,19.8M71.46,38.16a5.14,5.14,0,0,1,1.17-.35A1.3,1.3,0,0,1,73,37.75m16,9L59.4,88.48M74.92,37.92L49,73.89M83.59,39.68L54.3,81.16m5.92-37.79L43.93,66.51" transform="translate(-5.5 -19.06)"/>
  </g>
</svg>
