<svg id="Layer_1" data-name="Layer 1" xmlns="http://www.w3.org/2000/svg" viewBox="0 0 109.81 83.68">
  <defs>
    <style>
      .cls-1 {
        fill: none;
        stroke: #dd0000;
        stroke-linecap: round;
        stroke-linejoin: round;
        stroke-width: 2px;
      }

      .cls-2 {
        fill: #dd0000;
      }
    </style>
  </defs>
  <title>eng</title>
  <path id="Layer0_0_1_STROKES" data-name="Layer0 0 1 STROKES" class="cls-1" d="M42,36.29l-4.87,6.59m26.94,18-9.34,13M53.29,48.29l-6.15,8.45M65.08,46.39L53.59,61.58M47.3,42.11L36.87,57M65.35,86l-5.05,7.39M46.76,99.28l-2,2.92m27-37.58-19,25.59m-4-9.19L37.28,96.77m0.56-14.54-5.32,8M24.81,45.69l-5.55,7.39m9.72,15L21,78.36m10.75-.62L20.5,93M34.06,47.61L14,73.9" transform="translate(-8.63 -19.53)"/>
  <g id="Layer0_1_FILL" data-name="Layer0 1 FILL">
    <path class="cls-2" d="M42.26,35.49l-2.12.13a2.69,2.69,0,0,0-2.78,2.12v0.13l-1.59,6.75a2.71,2.71,0,0,1-1.59,1.85h0l-2.25.79a0.26,0.26,0,0,1-.13.13,1.76,1.76,0,0,1-2.12-.13l-0.13-.13-6.09-3.71h0a3.07,3.07,0,0,0-3.31.4L17,47a2.52,2.52,0,0,0-.26,3.44H16.58l3.71,6.09,0.13,0.13a2,2,0,0,1,0,2.25L19.49,61h0a2,2,0,0,1-1.59,1.59L11,64.35a2.68,2.68,0,0,0-2.38,2.52v4.63A3,3,0,0,0,11,74.14l6.88,1.72a2,2,0,0,1,1.59,1.46v0.13l0.93,2.12a2,2,0,0,1,0,2.25H20.28l-3.71,6.09h0.13A2.51,2.51,0,0,0,17,91.35l3.18,3.31a2.61,2.61,0,0,0,3.44.13H23.46l6.09-3.71h0A3,3,0,0,1,31.93,91l2.25,0.93h0a2.77,2.77,0,0,1,1.59,1.85l1.59,6.88h0a2.73,2.73,0,0,0,2.78,2.25L42.26,103a15.12,15.12,0,0,0,2.25-.13,2.76,2.76,0,0,0,2.78-2.25h0l1.59-6.88a2.84,2.84,0,0,1,1.46-1.85h0.13L52.58,91a3.2,3.2,0,0,1,2.52.13H55l6,3.71a2.83,2.83,0,0,0,3.57-.13l3-3.31a2.44,2.44,0,0,0,.4-3.44h0l-3.71-6.09h0a2.19,2.19,0,0,1-.13-2.25L65,77.45l0.13-.13a2,2,0,0,1,1.59-1.46h0l6.88-1.72h0A3,3,0,0,0,76,71.49V66.86a2.71,2.71,0,0,0-2.38-2.52l-6.88-1.72h0A2,2,0,0,1,65.16,61H65L64.1,58.92a2.19,2.19,0,0,1,.13-2.25V56.53l3.71-6.09h0a2.46,2.46,0,0,0-.4-3.44l-3-3.18a3.12,3.12,0,0,0-3.57-.4l-6,3.71v0.13a2,2,0,0,1-2.38,0h0l-2.12-.79a2.71,2.71,0,0,1-1.59-1.85l-1.59-6.75V37.74a2.73,2.73,0,0,0-2.78-2.12h0a15.58,15.58,0,0,0-2.25-.13m2.12,1.46h0.13A1.49,1.49,0,0,1,46,38.13L47.55,45h0a4,4,0,0,0,2.38,2.65l2.12,0.79H51.92a3.07,3.07,0,0,0,3.71-.13l6-3.71a1.87,1.87,0,0,1,2,.13l3,3.18a1.35,1.35,0,0,1,.26,1.85H66.75L63,55.87h0.13a3.33,3.33,0,0,0-.26,3.57l0.93,2.12V61.43a3.21,3.21,0,0,0,2.52,2.52l6.88,1.72h0.13a1.58,1.58,0,0,1,1.32,1.46v4.1a1.74,1.74,0,0,1-1.32,1.59H73.23l-6.88,1.72a3.16,3.16,0,0,0-2.52,2.38h0L62.91,79a3.33,3.33,0,0,0,.26,3.57L63,82.48l3.71,6.09h0.13a1.33,1.33,0,0,1-.26,1.85l-3,3.18a1.59,1.59,0,0,1-2,.13l-6-3.71V89.89a4.19,4.19,0,0,0-3.57-.13l-2.12.93h0a4,4,0,0,0-2.38,2.65v0.13L46,100.22a1.53,1.53,0,0,1-1.46,1.32H44.38a14.61,14.61,0,0,1-2.12.13l-2.12-.13a1.53,1.53,0,0,1-1.46-1.32L37.1,93.47V93.34a4,4,0,0,0-2.52-2.65h0.13l-2.25-.93a3.83,3.83,0,0,0-3.44.13H28.89L22.8,93.6v0.13a1.47,1.47,0,0,1-1.85-.13l-3-3.18a1.4,1.4,0,0,1-.13-1.85h0l3.71-6.09v0.13A3.16,3.16,0,0,0,21.61,79l-0.93-2.12h0.13a3.16,3.16,0,0,0-2.65-2.38l-6.88-1.72A1.74,1.74,0,0,1,10,71.23l-0.13-2L10,67.13a1.58,1.58,0,0,1,1.32-1.46l6.88-1.72a3.2,3.2,0,0,0,2.65-2.52l-0.13.13,0.93-2.12a3.16,3.16,0,0,0-.13-3.57h0l-3.71-6.09h0a1.42,1.42,0,0,1,.13-1.85l3-3.18a2.24,2.24,0,0,1,2-.13H22.8l6.09,3.71h0a3,3,0,0,0,3.71.13l2-.79h0.13A4,4,0,0,0,37.1,45h0l1.59-6.88a1.49,1.49,0,0,1,1.46-1.19l2.12-.13A14.51,14.51,0,0,1,44.38,36.94Z" transform="translate(-8.63 -19.53)"/>
  </g>
  <g id="Layer0_2_FILL" data-name="Layer0 2 FILL">
    <path class="cls-2" d="M56.16,69.24a13.83,13.83,0,0,0-4.1-9.93,13.31,13.31,0,0,0-9.8-4,13.57,13.57,0,0,0-13.9,13.9,13.61,13.61,0,0,0,4,9.8,13.83,13.83,0,0,0,9.93,4.1,13.1,13.1,0,0,0,9.8-4.1,13.39,13.39,0,0,0,4.1-9.8m-5-9a12.52,12.52,0,0,1,3.71,9,12.08,12.08,0,0,1-3.71,8.87,11.82,11.82,0,0,1-8.87,3.71,12.52,12.52,0,0,1-9-3.71,12.31,12.31,0,0,1-3.57-8.87A12.22,12.22,0,0,1,42.26,56.67,12,12,0,0,1,51.13,60.24Z" transform="translate(-8.63 -19.53)"/>
  </g>
  <g id="Layer0_3_FILL" data-name="Layer0 3 FILL">
    <path class="cls-2" d="M72.84,35.49h0L72,38.4a1.44,1.44,0,0,0,0,.26,2.61,2.61,0,0,0,1.19,2.25,0.13,0.13,0,0,0,.13,0l4.37,2.25a1.28,1.28,0,0,1,.66,1.19v0.13l0.26,1.59a1.3,1.3,0,0,1-.53,1.32l-3.44,3.44a2.39,2.39,0,0,0-.4,2.52v0.13L75.75,56l0.13,0.13a2.22,2.22,0,0,0,2.52.93V56.93L83,55.48a1.39,1.39,0,0,1,1.32.26l0.13,0.13,1.32,0.93h0A1.28,1.28,0,0,1,86.47,58v5a2,2,0,0,0,1.59,2.12L87.93,65l1.46,0.53a0.32,0.32,0,0,0,.13.13L91,65.93a1.93,1.93,0,0,0,2.38-1.19l2.25-4.37h0a2.16,2.16,0,0,1,1.32-.79l1.59-.26a1.24,1.24,0,0,1,1.32.4l3.44,3.44a1.9,1.9,0,0,0,2.65.53h0l2.65-1.59q0.14,0,.13,0a2.09,2.09,0,0,0,.66-2.65h0l-1.46-4.63,0.13,0.13a1.71,1.71,0,0,1,.26-1.46l1.06-1.32V52a1.43,1.43,0,0,1,1.19-.53h4.9A2,2,0,0,0,117.58,50a0.33,0.33,0,0,0,.13-0.13L118.38,47a2.12,2.12,0,0,0-1.19-2.52h0l-4.37-2.25h0a1,1,0,0,1-.66-1.06V41l-0.26-1.59a2.08,2.08,0,0,1,.4-1.46l3.44-3.44a2,2,0,0,0,.4-2.52V31.91l-1.59-2.52v0.13q-0.47-1.44-2.38-1.06H112l-4.63,1.46h0a1.37,1.37,0,0,1-1.46-.26l-1.19-.93a1.73,1.73,0,0,1-.79-1.32l0.13-4.9a2.37,2.37,0,0,0-1.59-2.25l-1.32-.4a0.18,0.18,0,0,1-.13,0l-1.59-.26a2,2,0,0,0-2.38,1.19V20.66L94.68,25v0.13a1.32,1.32,0,0,1-1.06.79L92,26.09H91.9a1.35,1.35,0,0,1-1.32-.4l-3.44-3.44a2.08,2.08,0,0,0-2.65-.53l-2.65,1.59v0.13q-1.51,1.13-.79,2.38l1.46,4.77A1.78,1.78,0,0,1,82.24,32l-1.06,1.32a0.68,0.68,0,0,1-.13.13A1,1,0,0,1,80,34h-4.9a2.23,2.23,0,0,0-2.25,1.46m1.32,0.4L74,36a1.1,1.1,0,0,1,1.06-.66H80a2.2,2.2,0,0,0,2.25-1.19l1.06-1.32a2.91,2.91,0,0,0,.53-2.52V30.19l-1.46-4.77a0.5,0.5,0,0,1-.13-0.13,0.8,0.8,0,0,1,.26-0.79l2.65-1.59a1,1,0,0,1,1.06.26l3.44,3.44a2.5,2.5,0,0,0,2.52.79l1.72-.13a2.49,2.49,0,0,0,2-1.59h0l2.38-4.37h0a0.81,0.81,0,0,1,.93-0.4l1.59,0.26-0.13-.13,1.32,0.4a1.29,1.29,0,0,1,.79,1.06l-0.13,4.9a2.86,2.86,0,0,0,1.32,2.38l1.19,0.93a2.63,2.63,0,0,0,2.78.4l-0.13.13,4.63-1.46a0.76,0.76,0,0,1,.93.26h0l1.59,2.52V32.44a1,1,0,0,1-.13,1.19l-3.57,3.57a3.25,3.25,0,0,0-.66,2.38v0.13l0.26,1.59a2.3,2.3,0,0,0,1.46,2.12h-0.13l4.37,2.25h0.13a0.88,0.88,0,0,1,.4,1.06l-0.66,2.91a1,1,0,0,1-.93.53h-4.9a2.64,2.64,0,0,0-2.38,1.19l-0.93,1.32a2.91,2.91,0,0,0-.53,2.52h0l1.46,4.63V60a0.81,0.81,0,0,1-.4,1.06l-2.52,1.46h0.13a0.76,0.76,0,0,1-1.06-.13l-3.57-3.57A2.25,2.25,0,0,0,98.25,58l-1.59.26a3.47,3.47,0,0,0-2.25,1.46v0.13l-2.25,4.37a0.69,0.69,0,0,1-.93.4l-1.46-.26h0.13l-1.46-.53a0.15,0.15,0,0,1-.13,0A0.67,0.67,0,0,1,87.8,63V58.26a2.15,2.15,0,0,0-1.19-2.52l-0.13-.13-1.32-.93a2.53,2.53,0,0,0-2.52-.4L78,55.74h0.13a1.15,1.15,0,0,1-1.19-.4l-1.46-2.52V53a1.52,1.52,0,0,1,.13-1.19l3.44-3.44A2.38,2.38,0,0,0,80,45.81l-0.26-1.59A2.58,2.58,0,0,0,78.27,42L74,39.86a1.51,1.51,0,0,1-.66-1.06Z" transform="translate(-8.63 -19.53)"/>
  </g>
  <g id="Layer0_4_FILL" data-name="Layer0 4 FILL">
    <path class="cls-2" d="M90,47.93A7.36,7.36,0,0,0,95.21,50a7.23,7.23,0,0,0,7.28-7.28,7.23,7.23,0,0,0-7.28-7.28A7.29,7.29,0,0,0,90,37.6a7.35,7.35,0,0,0,0,10.33m9.4-9.4a5.78,5.78,0,0,1,1.72,4.24,5.88,5.88,0,0,1-6,6A6,6,0,0,1,91,47a6.07,6.07,0,0,1,0-8.47,6.07,6.07,0,0,1,4.24-1.72A5.76,5.76,0,0,1,99.45,38.53Z" transform="translate(-8.63 -19.53)"/>
  </g>
</svg>
