<?xml version="1.0" encoding="utf-8"?>
<!-- Generator: Adobe Illustrator 19.2.0, SVG Export Plug-In . SVG Version: 6.00 Build 0)  -->
<svg version="1.1" id="Layer_1" xmlns="http://www.w3.org/2000/svg" xmlns:xlink="http://www.w3.org/1999/xlink" x="0px" y="0px"
	 viewBox="0 0 125 125" style="enable-background:new 0 0 125 125;" xml:space="preserve">
<style type="text/css">
	.st0{fill:#FF0000;stroke:#dd0000;stroke-miterlimit:10;}
</style>
<g>
	<g id="Layer0_0_FILL">
		<path class="st0" d="M83.8,27.9c0,0,0-0.1-0.1-0.1c-0.4-0.3-0.8-0.5-1.1-0.7h0.1c-0.2-0.2-0.5-0.3-0.7-0.5c0,0-0.1-0.1-0.2-0.1
			c0,0,0-0.1-0.1-0.1c-1.1-0.7-2.2-1.2-3.4-1.8c-0.2-0.1-0.5-0.2-0.7-0.3c-0.1,0-0.1-0.1-0.2-0.1c0,0-0.1-0.1-0.1-0.1
			c-0.4-0.2-0.8-0.3-1.3-0.5l-0.1-0.1c-0.2,0-0.3-0.1-0.5-0.1c-1-0.3-2-0.7-3-0.9c-1-0.2-1.9-0.4-2.9-0.6h-0.1
			c-0.6-0.1-1.2-0.2-1.8-0.2l-0.2-0.7c0,0,0-0.1-0.1-0.1c0-0.1,0-0.1-0.1-0.2l-4.8-14l-4.8,14c0,0,0,0.1,0,0.2
			c-0.1,0-0.1,0.1-0.1,0.2l-0.3,0.7c-1.2,0.2-2.4,0.4-3.6,0.7h-0.1c-1.9,0.5-3.7,1.1-5.4,1.8c-0.1,0-0.1,0.1-0.2,0.1
			c0,0-0.1,0-0.2,0c-1.6,0.7-3.1,1.5-4.6,2.4L41,28.4c-1.2,0.8-2.4,1.8-3.4,2.8c-0.7,0.7-1.2,1.1-1.5,1.4L35.7,33l-1.3-0.5l0.6,1.3
			c-0.2,0.3-0.5,0.5-0.7,0.7c-1.6,1.8-2.9,3.7-4.1,5.6c-0.2,0.3-0.4,0.6-0.6,0.9c0,0.1,0,0.2,0,0.2c0,0-0.1,0-0.1,0.1
			c0,0-0.1,0.1-0.1,0.1c-0.8,1.4-1.5,2.8-2,4.3c0,0.1,0,0.1-0.1,0.2c0,0.1,0,0.1,0,0.2c0,0-0.1,0.1-0.1,0.1
			c-0.3,0.8-0.6,1.6-0.7,2.5c0,0-0.1,0-0.1,0.1c-0.5,1.8-0.9,3.7-1.1,5.6c0,0.1,0,0.2,0.1,0.2c0,0-0.1,0-0.1,0.1
			c0,0.1-0.1,0.2-0.1,0.3L25,55.2c0,0-0.1,0.1-0.1,0.1c-0.1,0-0.1,0-0.2,0l-13.4,4.1c-0.7,0.2-1.1,0.4-1.5,0.5l-0.6,0.2l15.6,5.1
			c0,0,0.1,0,0.2,0c0,0,0,0.1,0.1,0.1l0.5,0.1c0,0,0.1,0,0.1,0c0.2,1.3,0.5,2.5,0.8,3.8c0,0.1,0,0.1,0.1,0.2c0,0-0.1,0.1-0.1,0.2
			c0,0.1,0.1,0.1,0.1,0.2c0,0.1,0,0.2,0,0.2c0.6,2.1,1.4,4.1,2.5,6.1c0,0.1,0,0.1,0.1,0.2v0.1c0,0.1,0,0.2,0.1,0.2v0.1
			c0,0,0,0.1,0.1,0.2c0.9,1.7,2,3.3,3.2,4.9c0,0.1,0,0.1,0.1,0.1c0,0.1,0,0.2,0.1,0.2c0,0,0.1,0.1,0.1,0.1c0,0.1,0,0.1,0.1,0.2
			c1,1.2,2.1,2.4,3.2,3.6c0,0,0,0.1,0.1,0.1c0,0,0.1,0,0.1,0.1c0,0-0.1,0-0.1,0.1l-0.6,1c0,0,0,0.1,0,0.2c0,0.1,0,0.2,0.1,0.2
			c0,0,0.1,0.1,0.2,0.1c0.1,0,0.1,0,0.2,0l1.1-0.6l0.1-0.1c0,0,0.1,0.1,0.1,0.1c1.3,1.2,2.7,2.3,4.2,3.3c0,0,0.1,0.1,0.1,0.1
			c0,0.1,0.1,0.1,0.1,0.1c0.1,0.1,0.2,0.1,0.2,0.1c0,0,0,0.1,0.1,0.1c1.6,1,3.2,2,4.9,2.8c0,0,0.1,0,0.2,0c0,0,0,0.1,0.1,0.1
			c0.1,0.1,0.2,0.1,0.2,0.1c0,0.1,0.1,0.1,0.2,0.2c1.6,0.7,3.2,1.3,4.9,1.7l1.4,0.4c0.4,0.1,1,0.2,1.6,0.3l0.6,0.2l6,19.7
			c0.1,0.5,0.3,1.1,0.6,1.7c0-0.1,0-0.2,0.1-0.4c0.2-0.7,0.4-1.1,0.4-1.2l6.1-20l1.9-0.3c0.1,0,0.1,0,0.2,0c0.2-0.1,0.4-0.1,0.5-0.2
			c0.8-0.2,1.6-0.4,2.4-0.6c0.5-0.2,0.9-0.3,1.4-0.5c0.3-0.1,0.5-0.2,0.8-0.2c0.2-0.1,0.5-0.2,0.7-0.3c0.2-0.1,0.4-0.2,0.5-0.2
			c0,0,0.1,0,0.1,0.1c0.1,0,0.2-0.1,0.3-0.1c0.2-0.1,0.3-0.2,0.5-0.2c0.2-0.1,0.4-0.2,0.6-0.3c0.2-0.1,0.3-0.2,0.5-0.3
			c0.7-0.3,1.3-0.7,1.9-1c0.1,0,0.1,0,0.2-0.1c0,0,0.1,0,0.1-0.1c1.2-0.7,2.4-1.6,3.6-2.5c0.4-0.3,0.8-0.6,1.3-1
			c0,0,0.1-0.1,0.1-0.1c0.2-0.2,0.5-0.4,0.7-0.6l0.9,0.5c0.1,0,0.2,0.1,0.2,0.1c0,0,0.1,0,0.2-0.1c0-0.1,0.1-0.1,0.1-0.2
			c0-0.1,0-0.2-0.1-0.2l-0.3-0.9c0.2-0.3,0.5-0.5,0.7-0.7c0.1,0,0.2-0.1,0.2-0.2c1.7-1.7,3.2-3.5,4.5-5.4c0.1-0.1,0.1-0.2,0.2-0.2
			c0-0.1,0.1-0.2,0.1-0.2c0,0,0.1,0,0.2-0.1c0.5-0.8,0.9-1.5,1.3-2.2c1.3-2.1,2.3-4.4,3-6.7c0-0.1,0-0.1,0-0.2
			c0.1-0.1,0.1-0.1,0.1-0.2c0.5-1.6,0.8-3.2,1.1-4.9l1.5-0.5c0.1,0,0.1-0.1,0.2-0.1c0,0,0.1,0,0.2,0l13.6-4.1c0.2,0,0.3-0.1,0.5-0.1
			c0.5-0.2,1.1-0.3,1.6-0.5c0.6-0.2,1.1-0.3,1.6-0.6c0,0,0.1,0,0.1,0l-0.1-0.1c-1-0.4-2.1-0.8-3.2-1c-0.2,0-0.3-0.1-0.5-0.1
			L101.7,55c0,0-0.1,0-0.1,0c-0.1,0-0.1-0.1-0.2-0.1l-1.2-0.3c-0.1-0.3-0.1-0.6-0.1-0.9c-0.2-1.2-0.4-2.4-0.7-3.5v-0.1
			c-0.1-0.3-0.2-0.5-0.2-0.8c0-0.1,0-0.1-0.1-0.2c0,0,0-0.1,0-0.2c-0.3-0.9-0.6-1.7-0.9-2.6c0-0.1,0-0.1-0.1-0.1v-0.1
			c0-0.1,0-0.2-0.1-0.2v-0.1h-0.1v-0.1c-0.2-0.4-0.3-0.8-0.5-1.3c-0.2-0.4-0.3-0.8-0.5-1.1c-0.3-0.7-0.6-1.4-1-2
			c0-0.1-0.1-0.1-0.1-0.1c0-0.1,0-0.2-0.1-0.2c-0.2-0.3-0.3-0.6-0.5-0.9c-0.1-0.2-0.2-0.4-0.3-0.6H95c-0.3-0.5-0.5-0.9-0.8-1.3
			c-0.6-0.8-1.2-1.6-1.8-2.4c-0.4-0.5-0.8-0.9-1.1-1.4c0,0-0.1,0-0.1-0.1L91,34.4c-0.1-0.1-0.2-0.2-0.3-0.4c0,0-0.1-0.1-0.1-0.1
			c0-0.1-0.1-0.1-0.1-0.2c-0.1-0.1-0.2-0.2-0.3-0.3l0.1-0.3c0-0.1,0.1-0.1,0.1-0.2c0-0.1-0.1-0.2-0.1-0.2c0,0-0.1-0.1-0.2-0.1
			c-0.1,0-0.2,0-0.2,0.1l-0.2,0.2c-0.1-0.1-0.2-0.2-0.2-0.3c-0.6-0.5-1.1-1.1-1.7-1.6c-0.1,0-0.1-0.1-0.2-0.1
			c-0.3-0.2-0.5-0.5-0.8-0.7c0,0-0.1-0.1-0.1-0.1c-0.9-0.7-1.8-1.4-2.7-2.1C83.9,28,83.8,27.9,83.8,27.9 M85.7,30.2
			c0.1,0.1,0.2,0.2,0.3,0.2l-3.1,4.2c-0.1,0-0.1,0.1-0.1,0.1c0,0-0.1,0.1-0.1,0.1l-2,2.7l-6.5,3.4l-0.9-2.6l2.3-3.1
			c0,0,0.1-0.1,0.1-0.2c0.1,0,0.1,0,0.1-0.1l4.8-6.5c0,0,0.1-0.1,0.1-0.1c0.1,0,0.1-0.1,0.1-0.1l0.7-1h0.1c0.2,0.2,0.4,0.3,0.6,0.5
			c0.4,0.2,0.7,0.5,1.1,0.7c0,0,0.1,0.1,0.2,0.1c0,0,0,0.1,0.1,0.1C84.3,29.1,85,29.6,85.7,30.2 M86.5,30.8c0,0.1,0.1,0.1,0.2,0.2
			c0.3,0.3,0.6,0.5,0.9,0.8c0.5,0.4,0.9,0.8,1.4,1.3c0,0,0,0.1,0.1,0.1l-2.5,1.3c-0.1,0-0.1,0-0.2,0.1c0,0-0.1,0-0.2,0.1l-4.1,2.1
			l1.1-1.6h0.1c0,0,0.1-0.1,0.1-0.2c0,0,0.1,0,0.1-0.1L86.5,30.8 M89.8,34c0,0,0.1,0.1,0.2,0.2c0,0,0.1,0.1,0.1,0.1
			c0,0.1,0,0.1,0.1,0.2c0.1,0.1,0.2,0.2,0.2,0.2l-3.3,4.4l2.1-3.8c0-0.1,0.1-0.1,0.1-0.2c0,0,0.1-0.1,0.1-0.1L89.8,34 M90.9,35.2
			c0.2,0.2,0.4,0.5,0.6,0.7c0.7,0.8,1.3,1.6,1.9,2.4c0.3,0.5,0.7,1,1,1.6l-1,1.3c0,0-0.1,0.1-0.1,0.1c0,0-0.1,0.1-0.1,0.1l-3.4,4.6
			c0,0.1-0.1,0.1-0.1,0.2c-0.1,0-0.1,0.1-0.2,0.1l-3.3,4.4c0,0-0.1,0.1-0.1,0.1l-4.5-1.2l1.6-2.9v-0.1c0,0,0-0.1,0-0.1
			c0,0,0.1-0.1,0.1-0.1l1.7-3.3l0.9-1.2c0-0.1,0.1-0.2,0.1-0.2c0.1,0,0.1-0.1,0.2-0.1L90.9,35.2 M86.6,35.1c0,0,0.1,0,0.2-0.1
			l2.4-1.2l-0.4,0.7c0,0.1-0.1,0.1-0.1,0.2c0,0-0.1,0.1-0.1,0.1l-3.3,6.2c0,0.1-0.1,0.1-0.1,0.2c0,0-0.1,0.1-0.1,0.2l-0.6,1.1v0.1
			c0,0-0.1,0-0.1,0.1L82.8,46c0,0.1-0.1,0.1-0.1,0.2c0,0-0.1,0.1-0.1,0.1L81,49.4l-4.4-1.2L76.6,48c0,0,0-0.1-0.1-0.1L76,46.3
			c0,0,0-0.1-0.1-0.1c0,0,0-0.1-0.1-0.2l-1.5-4.4l12.1-6.4C86.5,35.2,86.6,35.2,86.6,35.1 M93.7,41.6c0.1,0,0.1-0.1,0.2-0.1l0.8-1.1
			c0.2,0.3,0.4,0.7,0.6,1c0,0,0.1,0.1,0.1,0.1c0,0.1,0,0.1,0.1,0.2c0.3,0.6,0.6,1.1,0.9,1.7c0.4,0.8,0.7,1.6,1,2.4
			c0,0,0,0.1,0.1,0.1c0,0-0.1,0.1-0.1,0.1c-0.1,0-0.1,0.1-0.2,0.1l-2,2.7c0,0-0.1,0.1-0.1,0.2c-0.1,0-0.1,0.1-0.1,0.1l-1.3,1.7
			c0,0-0.1,0.1-0.1,0.1c0,0-0.1,0.1-0.1,0.1l-1,1.4l-1.3-0.3c-0.1,0-0.1,0-0.2,0c0,0-0.1-0.1-0.2-0.1l-4-1.1l3.2-4.4
			c0,0,0.1-0.1,0.1-0.2c0,0,0.1,0,0.1-0.1l3.4-4.6C93.7,41.7,93.7,41.6,93.7,41.6 M98.5,49.3c0,0,0,0.1,0,0.2
			c0.1,0.3,0.2,0.5,0.2,0.8c0.3,1.1,0.5,2.2,0.6,3.4l-0.5,0.6l-4.8-1.3c-0.1,0-0.1,0-0.2,0c0,0-0.1-0.1-0.2-0.1l-0.6-0.1l0.9-1.2
			c0,0,0.1-0.1,0.1-0.1c0.1,0,0.1-0.1,0.2-0.1l1.2-1.7c0,0,0.1-0.1,0.1-0.2c0.1,0,0.1-0.1,0.2-0.1l1.9-2.6c0.3,0.8,0.5,1.6,0.8,2.4
			C98.5,49.2,98.5,49.3,98.5,49.3 M99.7,55.1L99.7,55.1l1.5,0.5c0,0,0.1,0,0.2,0c0,0,0.1,0,0.1,0.1l14.8,4h-14.6
			c-0.1,0-0.1,0-0.2,0.1c0,0-0.1-0.1-0.2-0.1H94c-0.1,0-0.1,0-0.2,0.1c0,0-0.1-0.1-0.2-0.1H63.4l5.4-4.7c0,0,0.1-0.1,0.1-0.1
			s0.1-0.1,0.2-0.1l7.1-6.1l0.1,0.1l14.5,4c0.1,0,0.2,0,0.2,0c0,0,0,0.1,0.1,0.1l1.5,0.4c0,0,0.1,0.1,0.1,0.1l1,0.3
			c0.1,0,0.1,0,0.2,0c0,0,0.1,0,0.1,0.1l5.1,1.4H99L99.7,55.1 M101.3,60.3c0.1,0,0.1,0,0.2-0.1c0,0,0.1,0.1,0.2,0.1h13.6l-13.7,4.2
			c-0.1,0-0.1,0-0.1,0.1c-0.1,0-0.1,0-0.2,0l-1.7,0.5h-0.1l-1.1,0.3c0,0-0.1,0-0.1,0.1l-4.4,1.3c0,0-0.1,0-0.1,0.1c0,0-0.1,0-0.2,0
			l-4.3,1.3c0,0-0.1,0.1-0.1,0.1c-0.1,0-0.1,0-0.2,0l-13,4l-0.7-0.7c-0.1,0-0.1-0.1-0.2-0.1c0,0-0.1-0.1-0.1-0.1L63.7,60.3h30
			c0.1,0,0.1,0,0.2-0.1c0,0,0.1,0.1,0.2,0.1H101.3 M94,67.5c0,0,0.1,0,0.2,0l3.3-1l-2.8,3.8c0,0.1-0.1,0.1-0.1,0.2
			c-0.1,0-0.1,0.1-0.2,0.1l-5.8,7.9c0,0-0.1,0.1-0.1,0.2c-0.1,0-0.1,0-0.2,0.1l-2.1,2.8l-1.7-4.1c0-0.1,0-0.1-0.1-0.2
			c0,0,0-0.1-0.1-0.2l-0.7-1.7h0.1c0.1,0,0.2-0.1,0.2-0.2l4.5-6.1l0.6-0.2c0,0,0.1-0.1,0.1-0.1c0.1,0,0.2,0,0.2,0l4.2-1.3
			C93.9,67.6,93.9,67.6,94,67.5 M87.6,69.5l-4,5.3l-1.5-3.6L87.6,69.5 M95,71c0,0,0.1-0.1,0.1-0.2c0,0,0.1,0,0.1-0.1l3.4-4.5
			l0.6-0.2c-0.3,1.5-0.6,3-1,4.4c0,0,0,0.1,0,0.2c0,0-0.1,0.1-0.1,0.2c-0.8,2.4-1.8,4.7-3,6.8c-0.4,0.7-0.8,1.3-1.2,2
			c0,0-0.1,0.1-0.1,0.2c0,0-0.1,0-0.1,0.1c-0.1,0.1-0.1,0.2-0.2,0.2c-1.3,1.8-2.7,3.4-4.3,5.1c-0.1,0.1-0.2,0.2-0.2,0.3
			c-0.3,0.2-0.5,0.5-0.7,0.7l-1.6-3.8l2.4-3.2C89,79,89,79,89,78.9c0,0,0.1-0.1,0.1-0.1L95,71 M84,77.5c0,0,0,0.1,0,0.2l2,4.7v0.1
			l1.8,4.4l0.1,0.1l0.1,0.2l-0.1-0.1c0,0-0.1-0.1-0.1-0.1l-3.4-2h-0.1l-2.4-1.4c0,0-0.1-0.1-0.2-0.1c0,0,0-0.1-0.1-0.1l-2.6-1.6
			c-0.1,0-0.1-0.1-0.2-0.1c0,0-0.1-0.1-0.1-0.1l-4.1-2.4l-0.1-0.1v-0.1l1.1-3.6c0-0.1,0-0.2,0-0.2c0,0,0.1-0.1,0.1-0.1l0.6-2.2
			l5.2-1.6l1.6,3.8c0,0.1,0.1,0.1,0.2,0.2l0.1,0.1h-0.1c0,0.1,0,0.2,0,0.2l0.7,1.7C83.9,77.4,83.9,77.5,84,77.5 M86.2,87.9
			c-0.3,0.2-0.6,0.5-0.9,0.7c-1.3,1-2.6,1.9-3.9,2.7c-0.1,0-0.1,0.1-0.2,0.1c0,0-0.1,0-0.1,0.1c-0.7,0.4-1.5,0.8-2.2,1.2l2.8-3.7
			c0,0,0.1-0.1,0.1-0.2c0,0,0.1,0,0.1-0.1l2.2-3l2.8,1.6c-0.1,0.1-0.1,0.1-0.2,0.2C86.5,87.5,86.4,87.7,86.2,87.9L86.2,87.9
			 M58.2,21.2c0,0,0.1-0.1,0.1-0.1l4-11.8V21c0,0,0,0.1,0.1,0.2c0,0-0.1,0.1-0.1,0.2v7.5c0,0,0,0.1,0.1,0.2c0,0-0.1,0.1-0.1,0.1v5.6
			c0,0.1,0,0.1,0.1,0.2c0,0-0.1,0.1-0.1,0.2v6.1c0,0.1,0,0.1,0.1,0.2c0,0-0.1,0.1-0.1,0.2v4.5c0,0.1,0,0.1,0.1,0.2
			c0,0-0.1,0.1-0.1,0.2v12.9l-6.4-5.5c0,0-0.1-0.1-0.2-0.1c0-0.1,0-0.1-0.1-0.2L49.1,48l0.5-1.5c0,0,0-0.1,0-0.1
			c0-0.1,0.1-0.1,0.1-0.2l1.6-4.5c0-0.1,0-0.1,0-0.2v-0.1c0,0,0.1-0.1,0.1-0.1l2.1-6.2c0,0,0-0.1,0-0.1c0,0,0.1-0.1,0.1-0.2l0.6-1.8
			V33l1.3-3.8c0-0.1,0-0.1,0-0.2c0,0,0.1-0.1,0.1-0.1l2.2-6.6c0,0,0-0.1,0-0.1l0.3-0.9C58.2,21.3,58.2,21.3,58.2,21.2 M49,28.8
			c-0.1,0-0.1,0.1-0.1,0.1l-4.2,5.7c-0.1,0-0.1,0.1-0.1,0.1c0,0-0.1,0.1-0.1,0.1l-1.5,2l-4.1-2.2c0,0-0.1-0.1-0.2-0.1
			c0,0-0.1-0.1-0.1-0.1L38,34.3l4-5.3c0.1-0.3,0.3-0.5,0.5-0.6c0.4-0.4,0.9-0.7,1.4-1c1.4-0.9,2.8-1.6,4.3-2.2c0,0,0.1-0.1,0.1-0.1
			c0.1,0,0.1,0,0.2,0c1.5-0.6,2.9-1.1,4.5-1.6l-3.8,5.2C49,28.7,49,28.7,49,28.8 M49.5,29.1c0.1,0,0.1-0.1,0.2-0.1l4.3-5.8
			c1-0.3,2-0.5,3.1-0.6L55,28.7c0,0,0,0.1,0,0.2c-0.1,0-0.1,0.1-0.1,0.1l-1.3,3.8l-1.3,1.8c0,0-0.1,0.1-0.1,0.1
			c-0.1,0-0.1,0.1-0.1,0.1l-3.6,4.9l-4.9-2.6l1.4-1.9c0.1,0,0.1-0.1,0.1-0.2c0,0,0.1,0,0.1-0.1l4.2-5.7
			C49.4,29.3,49.5,29.2,49.5,29.1 M42.9,37.5L42.9,37.5L42.9,37.5l5.5,2.9v0.1l2.2,1.1L49.1,46c0,0.1,0,0.1,0,0.2
			c-0.1,0-0.1,0.1-0.1,0.1L48.4,48c0,0,0,0.1,0,0.1L44,49.5c0-0.1,0-0.2-0.1-0.2l-0.8-1.5v-0.1l-0.7-1.4c0-0.1-0.1-0.1-0.1-0.2
			c0,0,0-0.1-0.1-0.2L40,41.8v-0.1l-0.2-0.3c0,0-0.1-0.1-0.1-0.1c0-0.1,0-0.2-0.1-0.2l-2.9-5.4c0,0,0-0.1,0-0.1l-1-1.8l2.4,1.3
			c0.1,0,0.1,0.1,0.2,0.1c0,0,0.1,0.1,0.2,0.2L42.9,37.5 M39.2,41.7l0.1,0.1l-3,4.1c-0.1,0.1-0.1,0.1-0.1,0.2c0,0-0.1,0.1-0.1,0.1
			l-5.4,7.4l-2.2,0.6c-0.1,0-0.1,0.1-0.2,0.1c0,0-0.1,0-0.1,0L26,54.9c0-0.1,0-0.2,0-0.2c0,0,0.1-0.1,0.1-0.1
			c0.2-1.9,0.6-3.8,1.1-5.6l1.8-2.4c0,0,0.1-0.1,0.1-0.2c0,0,0.1,0,0.1-0.1l3.4-4.6c0,0,0.1-0.1,0.1-0.1c0,0,0.1-0.1,0.1-0.1
			c0,0,0-0.1,0.1-0.1l3.7-5.1l2.6,5c0,0,0,0.1,0.1,0.1C39.2,41.6,39.2,41.7,39.2,41.7 M41.6,46.3c0,0,0.1,0.1,0.1,0.1
			c0,0.1,0,0.1,0.1,0.2l0.6,1.3l-2,2.7l-8.7,2.6l4.8-6.6c0.1,0,0.1-0.1,0.1-0.2c0,0,0.1,0,0.1-0.1l2.9-3.8L41.6,46.3 M52.7,35.1
			c0.1,0,0.1,0,0.2-0.1l-2,5.9L49.1,40l3.5-4.8C52.7,35.2,52.7,35.1,52.7,35.1 M40.8,29.4l-3.4,4.5l-1.1-0.6c0-0.1,0.1-0.1,0.2-0.2
			c0,0,0.1-0.1,0.1-0.1C37.9,31.7,39.3,30.5,40.8,29.4 M77,24.9c0,0,0.1,0.1,0.2,0.1c0.2,0.1,0.5,0.2,0.7,0.3c1,0.5,2,1,3,1.6
			l-0.7,0.9c0,0-0.1,0.1-0.1,0.1c-0.1,0-0.1,0.1-0.1,0.1l-4.8,6.5c0,0-0.1,0.1-0.1,0.1c-0.1,0-0.1,0.1-0.2,0.1l-2,2.8L72.1,35
			c0-0.1-0.1-0.1-0.1-0.2c0,0,0-0.1,0-0.2l-1.2-3.4l1.5-2c0,0,0.1-0.1,0.1-0.2c0,0,0.1-0.1,0.1-0.1l3.4-4.5c0.3,0.1,0.6,0.2,1,0.4
			C76.9,24.9,77,24.9,77,24.9 M72.4,23.4c1,0.3,1.9,0.6,2.8,0.9L72,28.6c0,0-0.1,0.1-0.1,0.2c-0.1,0-0.1,0.1-0.2,0.1l-1.1,1.6
			L70.1,29c0,0,0-0.1-0.1-0.1c0-0.1,0-0.1-0.1-0.2l-1.5-4.5l1-1.4C70.5,23,71.5,23.2,72.4,23.4 M66.7,21.2c0,0.1,0,0.1,0,0.2l1,2.8
			c0,0,0,0.1,0.1,0.1l1.6,4.7c0,0,0.1,0.1,0.1,0.1c0,0,0,0.1,0,0.2l0.7,2v0.1h0.1v0.1l1.2,3.5c0,0.1,0,0.1,0.1,0.2c0,0,0,0.1,0,0.1
			l1,3.2c0,0,0,0.1,0.1,0.1l1,2.9c0,0.1,0,0.1,0.1,0.2c0,0,0,0.1,0,0.2l1.5,4.5c0,0,0.1,0.1,0.1,0.2c0,0,0,0.1,0,0.1l0.5,1.5
			l-7.2,6.3c0,0-0.1,0-0.1,0.1c-0.1,0-0.1,0-0.2,0.1l-5.5,4.7V46.5c0-0.1,0-0.1-0.1-0.2c0,0,0.1-0.1,0.1-0.2v-4.5
			c0-0.1,0-0.1-0.1-0.2c0,0,0.1-0.1,0.1-0.2v-6.1c0-0.1,0-0.1-0.1-0.2c0,0,0.1-0.1,0.1-0.2v-5.6c0,0,0-0.1-0.1-0.1
			c0-0.1,0.1-0.1,0.1-0.2v-7.5c0-0.1,0-0.1-0.1-0.2c0-0.1,0.1-0.1,0.1-0.2V10.1l3.7,11C66.7,21.1,66.7,21.2,66.7,21.2 M68.8,22.7
			l-0.6,0.8l-0.3-1C68.1,22.6,68.5,22.6,68.8,22.7 M34.7,35c0.2-0.2,0.4-0.4,0.6-0.6l0.7,1.4l-4,5.3c0,0-0.1,0.1-0.1,0.1
			c0,0-0.1,0.1-0.1,0.1l-3.4,4.6c0,0.1-0.1,0.1-0.1,0.2c-0.1,0-0.1,0.1-0.2,0.1l-0.6,0.9c0.1-0.2,0.1-0.4,0.2-0.5
			c0-0.1,0.1-0.1,0.1-0.2c0-0.1,0.1-0.1,0.1-0.2c0-0.2,0.1-0.3,0.1-0.4c0.5-1.4,1.2-2.8,2-4.1c0,0,0.1-0.1,0.1-0.2
			c0,0,0.1-0.1,0.1-0.1c0.2-0.4,0.5-0.8,0.7-1.3C32,38.4,33.3,36.6,34.7,35 M30.8,54.2L30.8,54.2l17.9-5.5l0.1-0.1l6.3,5.5
			c0,0,0.1,0.1,0.2,0.1c0,0.1,0,0.1,0.1,0.2l6.1,5.3H25.1c-0.1,0-0.1,0-0.2,0.1c0,0-0.1-0.1-0.2-0.1h-12L24.9,56
			c0,0,0.1-0.1,0.1-0.1c0.1,0,0.1,0,0.2,0l3.1-0.9c0,0,0.1-0.1,0.1-0.1c0.1,0,0.1,0,0.2,0L30.8,54.2 M24.8,60.3c0.1,0,0.1,0,0.2-0.1
			c0,0,0.1,0.1,0.2,0.1h36.2L49.2,72.1c0,0-0.1-0.1-0.2-0.1L45.1,71c0,0-0.1,0-0.2,0c0,0-0.1-0.1-0.1-0.1c0,0-0.1,0-0.2,0
			c0-0.1-0.1-0.1-0.1-0.1L42,69.9c-0.1,0-0.1,0-0.2,0c0,0,0-0.1-0.1-0.1c-0.1-0.1-0.2-0.1-0.2-0.1h-0.1c0,0-0.1-0.1-0.2-0.1L35.8,68
			c-0.1,0-0.1,0-0.2,0h-0.1c-0.1-0.1-0.2-0.1-0.2-0.1c0,0-0.1-0.1-0.2-0.1L29.6,66c-0.1,0-0.1,0-0.2,0c0,0-0.1,0-0.1-0.1
			c-0.1,0-0.2-0.1-0.2-0.1c0,0-0.1,0-0.1,0.1c0-0.1-0.1-0.1-0.1-0.1L26.3,65c-0.1,0-0.1,0-0.2,0l-0.1-0.1c-0.1-0.1-0.2-0.1-0.3-0.1
			c0,0-0.1-0.1-0.1-0.1l-0.5-0.2c-0.1,0-0.1,0-0.2,0c0,0-0.1-0.1-0.2-0.1l-13.4-4.2H24.8 M35.6,68.6c0,0,0.1,0,0.1,0.1l5.4,1.7
			L33,81.2c-1.2-1.6-2.2-3.2-3-4.8c0,0-0.1-0.1-0.1-0.1L35.6,68.6 M26.9,68.8c-0.3-1-0.5-2.1-0.6-3.1l2.4,0.7L26.9,68.8 M29.3,66.7
			c0,0,0.1,0,0.1,0.1l5.4,1.7l-5.3,7.2c-1-1.9-1.8-3.8-2.4-5.9c0,0,0-0.1-0.1-0.1L29.3,66.7 M33.4,81.9
			C33.4,81.8,33.4,81.8,33.4,81.9l8.3-11.4c0,0,0,0.1,0.1,0.1l2.4,0.8l-7.7,14C35.4,84.2,34.4,83.1,33.4,81.9 M36.8,86.4
			c0-0.1,0-0.1,0-0.2c0.1,0,0.1-0.1,0.1-0.2l8-14.5c0,0,0,0.1,0.1,0.1l3.8,1.1c0,0,0.1,0,0.1,0l0.1,0.1c0,0.1,0,0.1,0,0.2l1.6,6.2
			v0.1l-0.9,0.5c-0.1,0-0.1,0.1-0.1,0.1h-0.1c-0.1,0-0.2,0.1-0.2,0.2l-0.2,0.2L49,80.1c-0.1,0-0.2,0-0.3,0.1l-11.5,6.1
			c-0.1,0-0.1,0.1-0.2,0.1C36.9,86.4,36.9,86.4,36.8,86.4 M62.9,60.3c0,0.1,0,0.2,0.1,0.2l11.6,11.3c0,0,0.1,0.1,0.2,0.1
			c0,0,0,0.1,0.1,0.1l0.8,0.7L75,75c0,0.1,0,0.1,0,0.2c0,0.1-0.1,0.1-0.1,0.2l-1.1,3.6c0,0-0.1,0.1-0.1,0.2c0,0,0,0.1-0.1,0.1
			l-4.4,14.5c-0.2,0.4-0.3,0.8-0.3,1.1c0,0.1-0.1,0.2-0.1,0.3l-0.1,0.2v-0.1l-5.9,19.5V60.3 M43.4,49.5c0,0,0,0.1,0.1,0.1l-1.9,0.6
			l1.3-1.7L43.4,49.5 M49.6,72.7c0,0,0-0.1-0.1-0.1l12.6-12.3v53.9l-5.7-18.6v0.1l0.1,0.2c-0.1-0.2-0.1-0.3-0.1-0.3l-3-9.5
			c0-0.1,0-0.2-0.1-0.2c0-0.1,0-0.2,0-0.2c0-0.1,0-0.1-0.1-0.2c0-0.1,0-0.1,0-0.2l-1.8-5.8c0-0.1-0.1-0.1-0.1-0.2
			c0-0.1,0-0.2-0.1-0.2v-0.1c0-0.1,0-0.1,0-0.2L49.6,72.7 M49.8,80.3c0.1,0,0.2,0,0.2-0.1l0.7-0.4l1.8,5.8c0,0,0.1,0.1,0.1,0.1
			L47.3,93l-0.1-0.1c-1.6-0.8-3.2-1.6-4.8-2.6L49.8,80.3L49.8,80.3 M48.4,81.1l-6.5,8.8c-1.4-1-2.7-2.1-4-3.2L48.4,81.1 M54.9,92.9
			l-0.4,0.7l-1.1,1.5h-0.1c-1.9-0.5-3.7-1.1-5.3-1.8l4.9-6.7L54.9,92.9 M55.1,93.8l0.5,1.8c-0.5-0.1-1.1-0.2-1.6-0.3L55.1,93.8
			 M81.3,88.4c-0.1,0-0.1,0.1-0.2,0.1l-3.5,4.7c-0.5,0.2-0.9,0.4-1.4,0.6c-0.1,0-0.2,0.1-0.3,0.1c-0.2,0.1-0.4,0.2-0.6,0.2
			c-0.1,0-0.2,0-0.3,0.1c-0.3,0.1-0.7,0.2-1,0.3c-0.8,0.2-1.5,0.4-2.3,0.6c-0.2,0-0.4,0.1-0.6,0.1l-1.7,0.3v-0.5l0.9-1.4l8.3-11.3
			l2.4,1.4c0,0,0.1,0.1,0.1,0.1c0,0,0.1,0.1,0.2,0.1l2.1,1.3l-2.2,2.9C81.3,88.3,81.3,88.4,81.3,88.4 M74.2,79.9l4,2.3l-7.9,10.7
			L74.2,79.9z"/>
	</g>
</g>
</svg>
