<svg id="Layer_1" data-name="Layer 1" xmlns="http://www.w3.org/2000/svg" viewBox="0 0 108.77 79.91">
  <defs>
    <style>
      .cls-1 {
        fill: none;
        stroke: #dd0000;
        stroke-linecap: round;
        stroke-linejoin: round;
        stroke-width: 1.5px;
      }
    </style>
  </defs>
  <title>fpa</title>
  <path id="Layer5_0_1_STROKES" data-name="Layer5 0 1 STROKES" class="cls-1" d="M82.85,41.5a1.64,1.64,0,0,1,1.25.1l3.85-5.15q-1.85-.55-3.7-1a34.29,34.29,0,0,0-3.4-.7L75.55,42q0,0.2-.1.5a8.63,8.63,0,0,1-1.6,3,4.44,4.44,0,0,1-1.75,1.15L56.6,67.55,62.8,69l0.8,0.3L82.5,43.8a2.24,2.24,0,0,1,.1-1.15A2.11,2.11,0,0,1,82.85,41.5Zm0.1,7a2.65,2.65,0,0,1,1.8,1.25,2.41,2.41,0,0,0,.75.65,1.11,1.11,0,0,1,.5.1q3.15-.1,2.7-3.35a2.86,2.86,0,0,0,.2-0.65,5.11,5.11,0,0,0,.25-2.6q-0.45-1-3.25-1.8-1.1-.3-1.8-0.45m-1.6,2.2q0.1,0.25.2,0.55a8.57,8.57,0,0,1-.8,1.5,0.64,0.64,0,0,0,0,.6,1.91,1.91,0,0,0,.8,1m3.3,3L70.05,71.95a12.65,12.65,0,0,1,4.2,3.35A3.81,3.81,0,0,1,75,76.5l25.3-34A48,48,0,0,0,94.4,39l-5.5,7.4M94.4,39a50.18,50.18,0,0,0-6.45-2.6M75,76.5q1.3,3-.4,7.65a5.16,5.16,0,0,0-.35,2.1,10.59,10.59,0,0,0,.25,2.35L97.7,57.25H97.45L96.65,57a2.57,2.57,0,0,1-1.25-.55,1.75,1.75,0,0,1,0-1.75q1.5-5.45,4.9-4.45,1.35,0.4,2.1.65l3-4.2a15.06,15.06,0,0,0-2.5-2.35q-1.3-1-2.65-1.9M115.9,66.7a28.53,28.53,0,0,0-2-6.95q-0.2-.45-0.45-1l-4.6,6.2,0.1,0.05a5.46,5.46,0,0,1,.75,2.55,1.78,1.78,0,0,1-.7,1.9,3.93,3.93,0,0,1,.9,1.45,2.27,2.27,0,0,1-.1,1.1,2.31,2.31,0,0,1-2.5,1.7,20.16,20.16,0,0,1-2.6-.65l-1.45-.5-8.6,11.5a5.25,5.25,0,0,1-.15.7,5.89,5.89,0,0,1-3.15,3.9,0.54,0.54,0,0,0-.2.1l-6,8.25a10.16,10.16,0,0,0,1.45.3,13.58,13.58,0,0,0,7.2-.75l22.1-29.9q1.5,11-8.2,20.25Q99.9,94.3,93.8,96.6m9.65-39.7-1.1-2a1.27,1.27,0,0,1,.3-0.3,2.82,2.82,0,0,0,.85-1.35,1.72,1.72,0,0,0-.45-2.1,1.68,1.68,0,0,0-.65-0.3m-4.7,6.35,0.6,0a3.07,3.07,0,0,0,1.75,1.15,1.15,1.15,0,0,1,.4.1,2.07,2.07,0,0,0,1.45-.7,2.82,2.82,0,0,1,1.4-.25m-0.05,15.1a4.18,4.18,0,0,1-1.45-.9q-0.55-.8.1-3.3a7.56,7.56,0,0,1,1.35-3.1,7.59,7.59,0,0,1,2.75-.85q2.2-.45,2.85.55m4.6-6.2a69.67,69.67,0,0,0-3.6-6.55l-18.5,24.9A6.13,6.13,0,0,1,93.9,79.8a6.42,6.42,0,0,1,.75,4.3M74.5,88.6a9,9,0,0,0,3.7,5.25,5.59,5.59,0,0,1,.6.35l4.85-6.55A8.9,8.9,0,0,1,82.5,86.1a6.53,6.53,0,0,1,2.6-8.9,6.73,6.73,0,0,1,5-.55,6.11,6.11,0,0,1,1.25.5M91.15,88.8a6.31,6.31,0,0,1-7.5-1.15m26.2-35.4a36.66,36.66,0,0,0-4.4-5.55M56.6,67.55L49.4,65.8l-0.9-.2a0.29,0.29,0,0,0,0,.2,0.22,0.22,0,0,0-.2-0.2,20.07,20.07,0,0,1-4.65-1.55,6.07,6.07,0,0,1-.9-0.5,4.93,4.93,0,0,1-.65-0.4,14.16,14.16,0,0,1-2-1.5,8.72,8.72,0,0,1-2-3.15,10,10,0,0,1,0-6.25,13,13,0,0,1,.75-2A22.17,22.17,0,0,1,46,41.1q1.45-1.1,3.1-2.2a21.81,21.81,0,0,1,1.95-1.25,0.44,0.44,0,0,1,.2-0.05L52.55,37q1.1-.55,2.3-1a26,26,0,0,1,3.8-1.4,48.71,48.71,0,0,1,6.15-.75q1.45-.15,3.15-0.2a31.56,31.56,0,0,1,5.25.15,59.5,59.5,0,0,1,7.65,1.1m-22,10.65,0.75-2a4.28,4.28,0,0,0-1.1-1.1,1.55,1.55,0,0,0-1.85-.15V42.8H56.35a2,2,0,0,0-.8-0.2,1.86,1.86,0,0,0-2.15,1q-1.7-.5-2.4,2a5,5,0,0,0,0,2.1,5.83,5.83,0,0,0,.2.75,8.24,8.24,0,0,0,.55,1,2.47,2.47,0,0,0,.9.85,1.26,1.26,0,0,0,.3.15,1.58,1.58,0,0,1,.35.15,7.15,7.15,0,0,1,1.1.3,6.52,6.52,0,0,0,2.5.45,2.42,2.42,0,0,0,.35-0.3l1.25-1.5,1.7-.35a1.67,1.67,0,0,0,.6-2.4L59,45.8m-2.4-3.65q-0.1.6-.1,0.65m10.8-3.2a2.64,2.64,0,0,0,0,1.9,0.14,0.14,0,0,0,0,.1,6.6,6.6,0,0,0,1.15,1.2,7.56,7.56,0,0,1,1.85,2.55,2,2,0,0,0,1.25,1.2,1.11,1.11,0,0,0,.5.1M75.55,42a3.23,3.23,0,0,0-.6-1.8,3.75,3.75,0,0,0-2.15-1.5q-1.35-.4-1.65,0t-1.55-.1l-0.85-.2a0.85,0.85,0,0,0-1.2.35m5.65-5-3.6,4.85m-4.8-4.8L58.45,42.3m-41.2,8.1L49.6,102.15q2.75,0.6,2.05-2.15L24,46.45,17,50l-3.3-4.7,7.85-4.15q3.5-1.55-2.1-5.45A16.76,16.76,0,0,1,16.88,34a13.33,13.33,0,0,1-2.68-3.6Q14,30,13.82,29.6q-0.21-2.25,2-5.75Q7.35,27.9,9.15,38.55q0.65,4.8,4.1,6.35M24,46.45l-2.35-5.3m48.45,30.8A30.37,30.37,0,0,0,63.6,69.3M48.25,65.6H48.5L48,65.45A1.26,1.26,0,0,0,48.25,65.6ZM52.6,50.15l-9.9,13.4m24.65-22L49.4,65.8m5.45-29.9L38,58.5m47.1,38.55A18.81,18.81,0,0,1,78.8,94.2" transform="translate(-8.08 -23.1)"/>
</svg>
